<svg width="200" height="48" viewBox="0 0 404 48" fill="none" xmlns="http://www.w3.org/2000/svg">
<path d="M0.5 48V10.35H9.2L9.65 16.25L7.85 15.8C8.05 14.6667 8.6 13.65 9.5 12.75C10.4333 11.85 11.5833 11.1333 12.95 10.6C14.3167 10.0667 15.8 9.8 17.4 9.8C19.6333 9.8 21.6167 10.4 23.35 11.6C25.0833 12.7667 26.45 14.3833 27.45 16.45C28.45 18.5167 28.95 20.9167 28.95 23.65C28.95 26.3167 28.45 28.7 27.45 30.8C26.45 32.8667 25.0667 34.5 23.3 35.7C21.5333 36.8667 19.5167 37.45 17.25 37.45C15.75 37.45 14.3167 37.1833 12.95 36.65C11.6167 36.0833 10.4833 35.3333 9.55 34.4C8.65 33.4333 8.06667 32.35 7.8 31.15L9.9 30.45V48H0.5ZM14.75 29.8C15.8167 29.8 16.7333 29.55 17.5 29.05C18.2667 28.55 18.85 27.85 19.25 26.95C19.65 26.0167 19.85 24.9167 19.85 23.65C19.85 22.35 19.65 21.25 19.25 20.35C18.85 19.4167 18.2667 18.7 17.5 18.2C16.7333 17.7 15.8167 17.45 14.75 17.45C13.6833 17.45 12.7667 17.7 12 18.2C11.2333 18.6667 10.65 19.3667 10.25 20.3C9.85 21.2333 9.65 22.35 9.65 23.65C9.65 24.9167 9.85 26.0167 10.25 26.95C10.65 27.85 11.2333 28.55 12 29.05C12.7667 29.55 13.6833 29.8 14.75 29.8ZM34.0449 37V10.35H42.7449L43.2449 19.1L41.2949 17.6C41.7283 16.1333 42.3949 14.8167 43.2949 13.65C44.2283 12.45 45.3449 11.5167 46.6449 10.85C47.9449 10.15 49.3116 9.8 50.7449 9.8C51.3449 9.8 51.9116 9.85 52.4449 9.95C52.9783 10.0167 53.4783 10.1167 53.9449 10.25L51.3949 20.55C51.0283 20.3167 50.5116 20.1167 49.8449 19.95C49.1783 19.75 48.4616 19.65 47.6949 19.65C47.0283 19.65 46.4283 19.7667 45.8949 20C45.3616 20.2 44.9116 20.5 44.5449 20.9C44.1783 21.3 43.8949 21.7833 43.6949 22.35C43.4949 22.8833 43.3949 23.5167 43.3949 24.25V37H34.0449ZM67.0219 29.4L62.8219 23.2L75.1719 10.35H87.3219L67.0219 29.4ZM57.9219 37V-4.76837e-07H67.2719V37H57.9219ZM76.0719 37L66.9719 24.6L73.5219 19.8L86.8219 37H76.0719ZM106.484 26.8V18.45H125.034V26.8H106.484ZM147.912 48V10.35H156.612L157.062 16.25L155.262 15.8C155.462 14.6667 156.012 13.65 156.912 12.75C157.845 11.85 158.995 11.1333 160.362 10.6C161.729 10.0667 163.212 9.8 164.812 9.8C167.045 9.8 169.029 10.4 170.762 11.6C172.495 12.7667 173.862 14.3833 174.862 16.45C175.862 18.5167 176.362 20.9167 176.362 23.65C176.362 26.3167 175.862 28.7 174.862 30.8C173.862 32.8667 172.479 34.5 170.712 35.7C168.945 36.8667 166.929 37.45 164.662 37.45C163.162 37.45 161.729 37.1833 160.362 36.65C159.029 36.0833 157.895 35.3333 156.962 34.4C156.062 33.4333 155.479 32.35 155.212 31.15L157.312 30.45V48H147.912ZM162.162 29.8C163.229 29.8 164.145 29.55 164.912 29.05C165.679 28.55 166.262 27.85 166.662 26.95C167.062 26.0167 167.262 24.9167 167.262 23.65C167.262 22.35 167.062 21.25 166.662 20.35C166.262 19.4167 165.679 18.7 164.912 18.2C164.145 17.7 163.229 17.45 162.162 17.45C161.095 17.45 160.179 17.7 159.412 18.2C158.645 18.6667 158.062 19.3667 157.662 20.3C157.262 21.2333 157.062 22.35 157.062 23.65C157.062 24.9167 157.262 26.0167 157.662 26.95C158.062 27.85 158.645 28.55 159.412 29.05C160.179 29.55 161.095 29.8 162.162 29.8ZM181.507 37V-4.76837e-07H190.807V37H181.507ZM207.025 37.45C204.825 37.45 202.842 36.8667 201.075 35.7C199.342 34.5 197.958 32.8667 196.925 30.8C195.925 28.7 195.425 26.3167 195.425 23.65C195.425 20.9167 195.925 18.5167 196.925 16.45C197.925 14.3833 199.308 12.7667 201.075 11.6C202.842 10.4 204.875 9.8 207.175 9.8C208.408 9.8 209.542 9.96667 210.575 10.3C211.608 10.6333 212.508 11.1167 213.275 11.75C214.042 12.3833 214.708 13.1 215.275 13.9C215.842 14.7 216.308 15.5667 216.675 16.5L214.775 16.4V10.35H223.925V37H214.575V30.5L216.625 30.6C216.325 31.5667 215.875 32.4667 215.275 33.3C214.708 34.1333 214.008 34.8667 213.175 35.5C212.342 36.1 211.408 36.5833 210.375 36.95C209.375 37.2833 208.258 37.45 207.025 37.45ZM209.675 29.8C210.742 29.8 211.658 29.5667 212.425 29.1C213.192 28.6 213.775 27.8833 214.175 26.95C214.608 26.0167 214.825 24.9167 214.825 23.65C214.825 22.35 214.608 21.2333 214.175 20.3C213.775 19.3667 213.192 18.6667 212.425 18.2C211.658 17.7 210.742 17.45 209.675 17.45C208.608 17.45 207.692 17.7 206.925 18.2C206.192 18.6667 205.625 19.3667 205.225 20.3C204.825 21.2333 204.625 22.35 204.625 23.65C204.625 24.9167 204.825 26.0167 205.225 26.95C205.625 27.8833 206.192 28.6 206.925 29.1C207.692 29.5667 208.608 29.8 209.675 29.8ZM230.92 37V10.35H239.62L240.02 15.75L238.12 16.35C238.453 15.0833 239.103 13.9667 240.07 13C241.037 12 242.187 11.2167 243.52 10.65C244.853 10.0833 246.253 9.8 247.72 9.8C249.72 9.8 251.403 10.2167 252.77 11.05C254.17 11.85 255.22 13.0667 255.92 14.7C256.653 16.3 257.02 18.2667 257.02 20.6V37H247.72V21.35C247.72 20.4833 247.587 19.7667 247.32 19.2C247.053 18.6 246.653 18.15 246.12 17.85C245.587 17.55 244.953 17.4167 244.22 17.45C243.653 17.45 243.12 17.5333 242.62 17.7C242.153 17.8667 241.737 18.1333 241.37 18.5C241.003 18.8333 240.72 19.2167 240.52 19.65C240.353 20.0833 240.27 20.5667 240.27 21.1V37H235.62C234.487 37 233.52 37 232.72 37C231.953 37 231.353 37 230.92 37ZM265.336 37V3.6H274.636V37H265.336ZM260.936 18.25V10.35H279.286V18.25H260.936ZM293.926 37.5C291.16 37.5 288.726 37.0667 286.626 36.2C284.526 35.3333 282.893 34.2167 281.726 32.85L287.176 28.15C288.243 29.1167 289.443 29.8333 290.776 30.3C292.143 30.7667 293.343 31 294.376 31C294.743 31 295.076 30.9667 295.376 30.9C295.676 30.8333 295.91 30.7333 296.076 30.6C296.276 30.4333 296.426 30.2667 296.526 30.1C296.66 29.9 296.726 29.6833 296.726 29.45C296.726 28.8833 296.443 28.45 295.876 28.15C295.576 28.0167 295.076 27.85 294.376 27.65C293.71 27.4167 292.81 27.1667 291.676 26.9C290.276 26.5333 289.026 26.1 287.926 25.6C286.826 25.0667 285.893 24.45 285.126 23.75C284.393 23.05 283.81 22.25 283.376 21.35C282.976 20.4167 282.776 19.4 282.776 18.3C282.776 16.9667 283.076 15.7833 283.676 14.75C284.276 13.7167 285.11 12.8333 286.176 12.1C287.243 11.3333 288.443 10.7667 289.776 10.4C291.11 10 292.476 9.8 293.876 9.8C295.443 9.8 296.91 9.96667 298.276 10.3C299.676 10.6 300.976 11.05 302.176 11.65C303.41 12.2167 304.51 12.9167 305.476 13.75L300.676 19.05C300.11 18.55 299.443 18.0833 298.676 17.65C297.943 17.2167 297.176 16.8667 296.376 16.6C295.576 16.3 294.826 16.15 294.126 16.15C293.693 16.15 293.326 16.1833 293.026 16.25C292.726 16.3167 292.476 16.4167 292.276 16.55C292.076 16.6833 291.926 16.85 291.826 17.05C291.726 17.25 291.676 17.4667 291.676 17.7C291.676 18 291.76 18.2833 291.926 18.55C292.093 18.8167 292.36 19.0333 292.726 19.2C293.026 19.3667 293.526 19.5833 294.226 19.85C294.96 20.0833 296.01 20.3833 297.376 20.75C298.91 21.1833 300.243 21.6833 301.376 22.25C302.51 22.8167 303.426 23.4667 304.126 24.2C304.626 24.7667 305.01 25.4 305.276 26.1C305.543 26.7667 305.676 27.5167 305.676 28.35C305.676 30.1167 305.16 31.7 304.126 33.1C303.126 34.4667 301.743 35.55 299.976 36.35C298.21 37.1167 296.193 37.5 293.926 37.5ZM309.924 37V-4.76837e-07H319.024V15.75L317.124 16.35C317.457 15.0833 318.107 13.9667 319.074 13C320.04 12 321.19 11.2167 322.524 10.65C323.857 10.0833 325.257 9.8 326.724 9.8C328.724 9.8 330.407 10.2167 331.774 11.05C333.174 11.85 334.224 13.0667 334.924 14.7C335.657 16.3 336.024 18.2667 336.024 20.6V37H326.724V21.35C326.724 20.4833 326.59 19.7667 326.324 19.2C326.057 18.6 325.657 18.15 325.124 17.85C324.59 17.55 323.957 17.4167 323.224 17.45C322.657 17.45 322.124 17.5333 321.624 17.7C321.157 17.8667 320.74 18.1333 320.374 18.5C320.007 18.8333 319.724 19.2167 319.524 19.65C319.357 20.0833 319.274 20.5667 319.274 21.1V37H314.624C313.49 37 312.524 37 311.724 37C310.957 37 310.357 37 309.924 37ZM355.44 37.5C352.607 37.5 350.073 36.9 347.84 35.7C345.607 34.5 343.857 32.8667 342.59 30.8C341.323 28.7333 340.69 26.35 340.69 23.65C340.69 20.95 341.323 18.5667 342.59 16.5C343.857 14.4333 345.607 12.8 347.84 11.6C350.073 10.4 352.607 9.8 355.44 9.8C358.273 9.8 360.79 10.4 362.99 11.6C365.223 12.8 366.973 14.4333 368.24 16.5C369.507 18.5667 370.14 20.95 370.14 23.65C370.14 26.35 369.507 28.7333 368.24 30.8C366.973 32.8667 365.223 34.5 362.99 35.7C360.79 36.9 358.273 37.5 355.44 37.5ZM355.44 29.65C356.44 29.65 357.34 29.4 358.14 28.9C358.973 28.3667 359.607 27.65 360.04 26.75C360.507 25.8167 360.74 24.7833 360.74 23.65C360.74 22.45 360.507 21.4 360.04 20.5C359.607 19.6 358.973 18.9 358.14 18.4C357.34 17.8667 356.44 17.6 355.44 17.6C354.407 17.6 353.49 17.8667 352.69 18.4C351.89 18.9 351.257 19.6167 350.79 20.55C350.323 21.45 350.09 22.4833 350.09 23.65C350.09 24.7833 350.323 25.8167 350.79 26.75C351.257 27.65 351.89 28.3667 352.69 28.9C353.49 29.4 354.407 29.65 355.44 29.65ZM375.207 48V10.35H383.907L384.357 16.25L382.557 15.8C382.757 14.6667 383.307 13.65 384.207 12.75C385.14 11.85 386.29 11.1333 387.657 10.6C389.024 10.0667 390.507 9.8 392.107 9.8C394.34 9.8 396.324 10.4 398.057 11.6C399.79 12.7667 401.157 14.3833 402.157 16.45C403.157 18.5167 403.657 20.9167 403.657 23.65C403.657 26.3167 403.157 28.7 402.157 30.8C401.157 32.8667 399.774 34.5 398.007 35.7C396.24 36.8667 394.224 37.45 391.957 37.45C390.457 37.45 389.024 37.1833 387.657 36.65C386.324 36.0833 385.19 35.3333 384.257 34.4C383.357 33.4333 382.774 32.35 382.507 31.15L384.607 30.45V48H375.207ZM389.457 29.8C390.524 29.8 391.44 29.55 392.207 29.05C392.974 28.55 393.557 27.85 393.957 26.95C394.357 26.0167 394.557 24.9167 394.557 23.65C394.557 22.35 394.357 21.25 393.957 20.35C393.557 19.4167 392.974 18.7 392.207 18.2C391.44 17.7 390.524 17.45 389.457 17.45C388.39 17.45 387.474 17.7 386.707 18.2C385.94 18.6667 385.357 19.3667 384.957 20.3C384.557 21.2333 384.357 22.35 384.357 23.65C384.357 24.9167 384.557 26.0167 384.957 26.95C385.357 27.85 385.94 28.55 386.707 29.05C387.474 29.55 388.39 29.8 389.457 29.8Z" fill="#9BE9A8"/>
</svg>

